<svg width="120" height="39" viewBox="0 0 120 39" fill="none" xmlns="http://www.w3.org/2000/svg">
<g clip-path="url(#clip0_1_459)">
<path d="M56.8176 13.4398C57.8369 13.4398 58.7216 13.6079 59.472 13.9439C60.2334 14.2799 60.816 14.7615 61.2192 15.3887C61.6224 16.0158 61.824 16.7607 61.824 17.6231C61.824 18.4743 61.6224 19.2191 61.2192 19.8575C60.816 20.4846 60.2334 20.9663 59.472 21.3023C58.7216 21.6383 57.8369 21.8063 56.8176 21.8063H54.1632V25.1999H51.9792V13.4398H56.8176ZM56.7168 19.9583C57.6689 19.9583 58.3913 19.7567 58.884 19.3535C59.3768 18.9503 59.6232 18.3735 59.6232 17.6231C59.6232 16.8726 59.3768 16.2959 58.884 15.8927C58.3913 15.4895 57.6689 15.2879 56.7168 15.2879H54.1632V19.9583H56.7168ZM72.204 20.7647C72.204 20.9103 72.1932 21.1175 72.1704 21.3863H65.1312C65.2548 22.047 65.574 22.5735 66.0888 22.9655C66.6156 23.3463 67.2648 23.5367 68.0376 23.5367C69.0234 23.5367 69.8352 23.2119 70.4736 22.5623L71.5992 23.8559C71.196 24.3375 70.6866 24.7014 70.0704 24.9479C69.4548 25.1943 68.76 25.3175 67.9872 25.3175C67.002 25.3175 66.1338 25.1214 65.3832 24.7295C64.6332 24.3375 64.0506 23.7942 63.636 23.0999C63.2328 22.3943 63.0312 21.5991 63.0312 20.7143C63.0312 19.8407 63.2274 19.0566 63.6192 18.3623C64.0224 17.6567 64.5768 17.1078 65.2824 16.7159C65.988 16.3239 66.7836 16.1279 67.668 16.1279C68.5416 16.1279 69.3204 16.3239 70.0032 16.7159C70.698 17.0967 71.2356 17.6399 71.616 18.3455C72.0084 19.0398 72.204 19.8462 72.204 20.7647ZM67.668 17.8079C66.996 17.8079 66.4248 18.0095 65.9544 18.4127C65.4954 18.8046 65.2152 19.3311 65.1144 19.9919H70.2048C70.1154 19.3422 69.8412 18.8159 69.3816 18.4127C68.9226 18.0095 68.3514 17.8079 67.668 17.8079ZM79.614 24.7127C79.368 24.9143 79.0656 25.0655 78.7068 25.1663C78.36 25.2671 77.9904 25.3175 77.598 25.3175C76.6128 25.3175 75.8508 25.0599 75.3132 24.5447C74.7756 24.0294 74.5068 23.2791 74.5068 22.2935V17.9759H73.0284V16.2959H74.5068V14.2463H76.6068V16.2959H79.0092V17.9759H76.6068V22.2431C76.6068 22.6799 76.7136 23.0159 76.926 23.2511C77.139 23.475 77.4468 23.5871 77.85 23.5871C78.3204 23.5871 78.7128 23.4639 79.026 23.2175L79.614 24.7127ZM86.9862 25.3679C85.7994 25.3679 84.7242 25.1103 83.7606 24.5951C82.809 24.0687 82.0584 23.3463 81.5094 22.4279C80.9718 21.5094 80.703 20.4735 80.703 19.3199C80.703 18.1662 80.9778 17.1303 81.5262 16.2119C82.0752 15.2934 82.8258 14.5767 83.7774 14.0615C84.741 13.5351 85.8162 13.2719 87.003 13.2719C87.9666 13.2719 88.8456 13.4398 89.6406 13.7758C90.4362 14.1118 91.1082 14.5991 91.6566 15.2375L90.2454 16.5647C89.3946 15.6462 88.347 15.1871 87.1038 15.1871C86.2974 15.1871 85.575 15.3663 84.9366 15.7247C84.2982 16.0719 83.8002 16.5591 83.4414 17.1863C83.0832 17.8134 82.9038 18.5247 82.9038 19.3199C82.9038 20.115 83.0832 20.8263 83.4414 21.4535C83.8002 22.0806 84.2982 22.5735 84.9366 22.9319C85.575 23.2791 86.2974 23.4527 87.1038 23.4527C88.347 23.4527 89.3946 22.9878 90.2454 22.0583L91.6566 23.4023C91.1082 24.0407 90.4302 24.5279 89.6238 24.8639C88.8288 25.1999 87.9498 25.3679 86.9862 25.3679ZM96.8928 16.1279C98.2146 16.1279 99.2226 16.4471 99.9168 17.0855C100.622 17.7126 100.975 18.6647 100.975 19.9415V25.1999H98.9928V24.1079C98.7354 24.4998 98.3658 24.8022 97.884 25.0151C97.4136 25.2167 96.8424 25.3175 96.1704 25.3175C95.4984 25.3175 94.9104 25.2054 94.4064 24.9815C93.9024 24.7463 93.5106 24.4271 93.2304 24.0239C92.9616 23.6094 92.8272 23.1447 92.8272 22.6295C92.8272 21.8231 93.1242 21.1791 93.7176 20.6975C94.3224 20.2047 95.2692 19.9583 96.5568 19.9583H98.8752V19.8239C98.8752 19.1967 98.685 18.7151 98.304 18.3791C97.9344 18.0431 97.38 17.8751 96.6408 17.8751C96.1368 17.8751 95.6388 17.9535 95.1456 18.1103C94.6644 18.267 94.2552 18.4854 93.9192 18.7655L93.096 17.2367C93.5664 16.8783 94.1322 16.6038 94.7928 16.4135C95.454 16.2231 96.1536 16.1279 96.8928 16.1279ZM96.6072 23.7887C97.134 23.7887 97.5984 23.6711 98.0016 23.4359C98.4162 23.1894 98.7072 22.8423 98.8752 22.3943V21.3527H96.708C95.4984 21.3527 94.8936 21.7503 94.8936 22.5455C94.8936 22.9263 95.0448 23.2287 95.3472 23.4527C95.6496 23.6766 96.0696 23.7887 96.6072 23.7887ZM105.67 17.5391C106.274 16.5983 107.339 16.1279 108.862 16.1279V18.1271C108.683 18.0935 108.52 18.0767 108.374 18.0767C107.557 18.0767 106.919 18.3174 106.459 18.7991C106 19.2695 105.77 19.9527 105.77 20.8487V25.1999H103.67V16.2287H105.67V17.5391ZM118.995 20.7647C118.995 20.9103 118.984 21.1175 118.961 21.3863H111.922C112.045 22.047 112.364 22.5735 112.88 22.9655C113.406 23.3463 114.056 23.5367 114.829 23.5367C115.814 23.5367 116.626 23.2119 117.265 22.5623L118.39 23.8559C117.987 24.3375 117.477 24.7014 116.861 24.9479C116.245 25.1943 115.551 25.3175 114.778 25.3175C113.792 25.3175 112.924 25.1214 112.174 24.7295C111.424 24.3375 110.841 23.7942 110.427 23.0999C110.024 22.3943 109.822 21.5991 109.822 20.7143C109.822 19.8407 110.018 19.0566 110.41 18.3623C110.813 17.6567 111.368 17.1078 112.073 16.7159C112.779 16.3239 113.574 16.1279 114.459 16.1279C115.333 16.1279 116.111 16.3239 116.794 16.7159C117.488 17.0967 118.026 17.6399 118.407 18.3455C118.799 19.0398 118.995 19.8462 118.995 20.7647ZM114.459 17.8079C113.787 17.8079 113.216 18.0095 112.745 18.4127C112.286 18.8046 112.006 19.3311 111.905 19.9919H116.996C116.906 19.3422 116.632 18.8159 116.173 18.4127C115.713 18.0095 115.142 17.8079 114.459 17.8079Z" fill="#333333"/>
<path d="M25.6787 20.3513C23.9508 17.6557 21.008 16.0461 17.8064 16.0461C14.6048 16.0461 11.662 17.6557 9.93431 20.3513L5.77065 26.8467C5.07983 27.9242 4.76108 29.1693 4.84868 30.4464C4.93628 31.7237 5.42231 32.9132 6.25403 33.887C7.08635 34.86 8.18615 35.525 9.43451 35.8104C10.6829 36.0957 11.9626 35.9738 13.135 35.4585L13.2135 35.4237C16.1637 34.1528 19.5349 34.1645 22.4775 35.4585C23.2366 35.7922 24.0408 35.961 24.8523 35.961C25.2935 35.961 25.7374 35.9109 26.1771 35.8107C27.4255 35.5256 28.5253 34.8606 29.3579 33.8873C30.1899 32.9144 30.6762 31.7246 30.7641 30.447C30.852 29.1693 30.5333 27.9245 29.8424 26.8464L25.6787 20.3513Z" fill="#726DA8"/>
<path d="M6.89214 20.3428C8.13078 19.867 9.07182 18.8688 9.54174 17.532C9.9891 16.26 9.9525 14.8238 9.4383 13.4879C8.92386 12.1528 7.9881 11.063 6.80334 10.4187C5.55882 9.7423 4.19153 9.63214 2.95492 10.1088C0.467024 11.0653 -0.674676 14.1398 0.410188 16.9637C1.27679 19.2113 3.29798 20.6302 5.34144 20.6302C5.86322 20.6302 6.38646 20.5376 6.89214 20.3428Z" fill="#726DA8"/>
<path d="M14.971 15.2539C18.0812 15.2539 20.6115 12.3711 20.6115 8.82764C20.6115 5.2833 18.0812 2.3999 14.971 2.3999C11.8611 2.3999 9.33105 5.2833 9.33105 8.82764C9.33105 12.3711 11.8611 15.2539 14.971 15.2539Z" fill="#726DA8"/>
<path d="M24.7121 16.8326H24.7124C25.1908 16.9914 25.6789 17.0673 26.1649 17.0673C28.4331 17.0673 30.6435 15.4164 31.487 12.8793C31.9727 11.4188 31.9408 9.87461 31.397 8.53133C30.8281 7.12511 29.7737 6.10439 28.4278 5.65701C27.0816 5.20965 25.6258 5.39627 24.3283 6.18203C23.0887 6.93263 22.1389 8.15044 21.6538 9.61091C20.6299 12.6918 22.0018 15.9314 24.7121 16.8326Z" fill="#726DA8"/>
<path d="M36.5906 16.0827L36.5897 16.0818C34.4449 14.4974 31.2372 15.1841 29.4387 17.6134C27.6419 20.0439 27.9228 23.3114 30.0644 24.8969C30.8455 25.4755 31.7684 25.7521 32.7129 25.7521C34.359 25.7521 36.0717 24.9119 37.2167 23.3667C39.0132 20.9363 38.7325 17.6688 36.5906 16.0827Z" fill="#726DA8"/>
</g>
<defs>
<clipPath id="clip0_1_459">
<rect width="120" height="38.4" fill="white"/>
</clipPath>
</defs>
</svg>
