<svg width="40" height="40" fill="none" xmlns="http://www.w3.org/2000/svg"><g clip-path="url(#a)"><path d="m.7 18.66 9.77 4.88c.38.18.83.17 1.19-.04l8.7-5.07-5.26 4.68c-.27.23-.42.57-.42.93v11.38c0 1.2 1.53 1.7 2.25.75l4.22-5.62 10.46 5.95c.73.42 1.67 0 1.84-.84l6.53-32.5c.19-.98-.78-1.77-1.68-1.4L.8 16.37c-1.01.39-1.08 1.8-.1 2.28ZM37.07 4.91l-5.74 28.56-9.9-5.64a1.25 1.25 0 0 0-1.62.34l-2.64 3.5V24.6l14.25-12.62c1.13-1-.17-2.78-1.46-2.02L10.99 21l-6.66-3.32L37.08 4.91Z" fill="#726DA8"/></g><defs><clipPath id="a"><path fill="#fff" d="M0 0h40v40H0z"/></clipPath></defs></svg>