<svg width="120" height="39" fill="none" xmlns="http://www.w3.org/2000/svg"><g clip-path="url(#a)"><path d="M56.818 13.44c1.019 0 1.904.168 2.654.504.761.336 1.344.817 1.747 1.445.403.627.605 1.372.605 2.234 0 .851-.202 1.596-.605 2.235-.403.627-.986 1.108-1.747 1.444-.75.336-1.635.504-2.654.504h-2.655V25.2H51.98V13.44h4.839Zm-.101 6.518c.952 0 1.674-.201 2.167-.604.493-.404.74-.98.74-1.73 0-.751-.247-1.328-.74-1.731-.493-.404-1.215-.605-2.167-.605h-2.554v4.67h2.554Zm15.487.807c0 .145-.01.352-.034.621h-7.039c.124.661.443 1.188.958 1.58.527.38 1.176.57 1.949.57.985 0 1.797-.324 2.436-.974l1.125 1.294a3.792 3.792 0 0 1-1.529 1.092c-.615.246-1.31.37-2.083.37-.985 0-1.853-.197-2.604-.588a4.314 4.314 0 0 1-1.747-1.63c-.403-.706-.605-1.5-.605-2.386 0-.873.196-1.657.588-2.352a4.272 4.272 0 0 1 1.663-1.646c.706-.392 1.502-.588 2.386-.588.874 0 1.652.196 2.335.588.695.38 1.233.924 1.613 1.63.392.694.588 1.5.588 2.419Zm-4.536-2.957c-.672 0-1.243.201-1.714.605-.459.392-.739.918-.84 1.579h5.09c-.089-.65-.363-1.176-.822-1.58-.46-.402-1.03-.604-1.714-.604Zm11.946 6.905a2.461 2.461 0 0 1-.907.453c-.347.101-.717.151-1.109.151-.985 0-1.747-.257-2.285-.772-.537-.516-.806-1.266-.806-2.252v-4.317h-1.479v-1.68h1.479v-2.05h2.1v2.05h2.402v1.68h-2.402v4.267c0 .437.107.773.319 1.008.213.224.52.336.924.336.47 0 .863-.123 1.176-.37l.588 1.496Zm7.372.655c-1.187 0-2.262-.258-3.225-.773a5.9 5.9 0 0 1-2.252-2.167c-.537-.919-.806-1.954-.806-3.108 0-1.154.275-2.19.823-3.108a5.777 5.777 0 0 1 2.251-2.15c.964-.527 2.04-.79 3.226-.79.964 0 1.843.168 2.638.504a5.374 5.374 0 0 1 2.016 1.462l-1.412 1.327c-.85-.919-1.898-1.378-3.141-1.378-.807 0-1.529.18-2.167.538a3.757 3.757 0 0 0-1.496 1.461c-.358.627-.537 1.339-.537 2.134 0 .795.18 1.506.537 2.133.36.628.857 1.12 1.496 1.479.638.347 1.36.52 2.167.52 1.243 0 2.29-.464 3.141-1.394l1.412 1.344a5.349 5.349 0 0 1-2.033 1.462c-.795.336-1.674.504-2.638.504Zm9.907-9.24c1.322 0 2.33.32 3.024.957.705.628 1.058 1.58 1.058 2.857V25.2h-1.982v-1.092c-.258.392-.627.694-1.109.907-.47.202-1.042.302-1.714.302-.672 0-1.26-.112-1.764-.335-.504-.236-.895-.555-1.176-.958a2.507 2.507 0 0 1-.403-1.395c0-.806.297-1.45.89-1.931.605-.493 1.552-.74 2.84-.74h2.318v-.134c0-.627-.19-1.109-.571-1.445-.37-.336-.924-.504-1.663-.504-.504 0-1.002.078-1.495.235-.482.157-.89.375-1.227.655l-.823-1.528c.47-.359 1.036-.633 1.697-.823a7.552 7.552 0 0 1 2.1-.286Zm-.286 7.66c.527 0 .991-.117 1.395-.352.414-.247.705-.594.873-1.042v-1.041h-2.167c-1.21 0-1.814.397-1.814 1.192 0 .381.15.684.453.908.303.224.723.336 1.26.336Zm9.063-6.249c.604-.94 1.669-1.411 3.192-1.411v2a2.669 2.669 0 0 0-.488-.051c-.817 0-1.455.24-1.915.722-.459.47-.689 1.154-.689 2.05v4.35h-2.1v-8.97h2v1.31Zm13.325 3.226c0 .145-.011.352-.034.621h-7.039c.123.661.442 1.188.958 1.58.526.38 1.176.57 1.949.57.985 0 1.797-.324 2.436-.974l1.125 1.294a3.793 3.793 0 0 1-1.529 1.092c-.616.246-1.31.37-2.083.37-.986 0-1.854-.197-2.604-.588a4.31 4.31 0 0 1-1.747-1.63c-.403-.706-.605-1.5-.605-2.386 0-.873.196-1.657.588-2.352a4.274 4.274 0 0 1 1.663-1.646c.706-.392 1.501-.588 2.386-.588.874 0 1.652.196 2.335.588a3.97 3.97 0 0 1 1.613 1.63c.392.694.588 1.5.588 2.419Zm-4.536-2.957c-.672 0-1.243.201-1.714.605-.459.392-.739.918-.84 1.579h5.091c-.09-.65-.364-1.176-.823-1.58-.46-.402-1.031-.604-1.714-.604Z" fill="#333"/><path d="M25.679 20.351a9.311 9.311 0 0 0-7.873-4.305 9.31 9.31 0 0 0-7.872 4.305l-4.163 6.496a5.878 5.878 0 0 0-.922 3.6 5.88 5.88 0 0 0 1.405 3.44 5.88 5.88 0 0 0 3.18 1.923 5.878 5.878 0 0 0 3.701-.352l.079-.034a11.634 11.634 0 0 1 9.263.035 5.886 5.886 0 0 0 3.7.352 5.879 5.879 0 0 0 3.18-1.924 5.877 5.877 0 0 0 1.407-3.44 5.878 5.878 0 0 0-.922-3.6L25.68 20.35ZM6.892 20.343c1.239-.476 2.18-1.474 2.65-2.811.447-1.272.41-2.708-.104-4.044-.514-1.335-1.45-2.425-2.635-3.07-1.244-.676-2.611-.786-3.848-.31-2.488.957-3.63 4.032-2.545 6.856.867 2.247 2.888 3.666 4.931 3.666a4.3 4.3 0 0 0 1.551-.287ZM14.971 15.254c3.11 0 5.64-2.883 5.64-6.426 0-3.545-2.53-6.428-5.64-6.428s-5.64 2.883-5.64 6.428c0 3.543 2.53 6.426 5.64 6.426ZM24.712 16.833c.479.158.967.234 1.453.234 2.268 0 4.479-1.65 5.322-4.188.486-1.46.454-3.004-.09-4.348-.569-1.406-1.623-2.427-2.97-2.874-1.345-.447-2.801-.26-4.099.525-1.24.75-2.19 1.968-2.674 3.429-1.024 3.08.348 6.32 3.058 7.222ZM36.59 16.083v-.001c-2.145-1.585-5.353-.898-7.151 1.531-1.797 2.43-1.516 5.698.625 7.284a4.41 4.41 0 0 0 2.649.855c1.646 0 3.359-.84 4.504-2.385 1.796-2.43 1.516-5.698-.626-7.284Z" fill="#726DA8"/></g><defs><clipPath id="a"><path fill="#fff" d="M0 0h120v38.4H0z"/></clipPath></defs></svg>