<svg width="200" height="64" fill="none" xmlns="http://www.w3.org/2000/svg"><path d="M94.7 22.4c1.7 0 3.17.28 4.42.84a6.44 6.44 0 0 1 2.91 2.4c.67 1.05 1.01 2.3 1.01 3.73 0 1.42-.34 2.66-1 3.73a6.44 6.44 0 0 1-2.92 2.4c-1.25.56-2.73.84-4.42.84h-4.43V42h-3.64V22.4h8.07Zm-.17 10.86c1.58 0 2.79-.33 3.61-1a3.51 3.51 0 0 0 1.23-2.89c0-1.25-.4-2.21-1.23-2.88-.82-.67-2.03-1.01-3.61-1.01h-4.26v7.78h4.26Zm25.81 1.35c0 .24-.02.59-.06 1.03h-11.73c.2 1.1.74 1.98 1.6 2.64a5.4 5.4 0 0 0 3.25.95c1.64 0 3-.54 4.06-1.63l1.87 2.16c-.67.8-1.52 1.4-2.55 1.82a9.28 9.28 0 0 1-3.47.62 9.24 9.24 0 0 1-4.34-.98 7.19 7.19 0 0 1-2.91-2.72c-.67-1.18-1-2.5-1-3.98 0-1.45.32-2.76.97-3.92a7.12 7.12 0 0 1 2.77-2.74 8.05 8.05 0 0 1 3.98-.98c1.46 0 2.75.33 3.9.98a6.6 6.6 0 0 1 2.68 2.72c.65 1.15.98 2.5.98 4.03Zm-7.56-4.93c-1.12 0-2.07.34-2.86 1a4.15 4.15 0 0 0-1.4 2.64h8.49a4.12 4.12 0 0 0-1.37-2.63c-.77-.67-1.72-1.01-2.86-1.01Zm19.91 11.5a4.1 4.1 0 0 1-1.51.76 6.6 6.6 0 0 1-1.85.26c-1.64 0-2.91-.43-3.8-1.3-.9-.85-1.35-2.1-1.35-3.74v-7.2h-2.47v-2.8h2.47v-3.42h3.5v3.42h4v2.8h-4v7.11c0 .73.18 1.29.53 1.68.35.38.87.56 1.54.56.78 0 1.44-.2 1.96-.61l.98 2.49Zm12.29 1.1c-1.98 0-3.77-.43-5.38-1.29a9.83 9.83 0 0 1-3.75-3.61 10.06 10.06 0 0 1-1.34-5.18 9.9 9.9 0 0 1 1.37-5.18 9.63 9.63 0 0 1 3.75-3.58c1.6-.88 3.4-1.32 5.38-1.32 1.6 0 3.07.28 4.4.84a8.96 8.96 0 0 1 3.35 2.44l-2.35 2.2a6.86 6.86 0 0 0-5.24-2.29c-1.34 0-2.54.3-3.6.9a6.26 6.26 0 0 0-2.5 2.43 7.04 7.04 0 0 0-.9 3.56c0 1.33.3 2.51.9 3.56a6.46 6.46 0 0 0 2.5 2.46c1.06.58 2.26.87 3.6.87 2.08 0 3.82-.78 5.24-2.33l2.35 2.24a8.91 8.91 0 0 1-3.39 2.44c-1.32.56-2.79.84-4.4.84Zm16.5-15.4c2.21 0 3.9.53 5.05 1.6 1.17 1.04 1.76 2.63 1.76 4.76V42H165v-1.82a4.15 4.15 0 0 1-1.85 1.51c-.78.34-1.74.5-2.86.5-1.12 0-2.1-.18-2.94-.55-.84-.4-1.49-.93-1.96-1.6a4.18 4.18 0 0 1-.67-2.32c0-1.35.5-2.42 1.49-3.22 1-.83 2.58-1.24 4.73-1.24h3.86v-.22c0-1.05-.31-1.85-.95-2.4-.62-.57-1.54-.85-2.77-.85-.84 0-1.67.13-2.5.4-.8.26-1.48.62-2.04 1.09l-1.37-2.55a8.5 8.5 0 0 1 2.83-1.37c1.1-.32 2.27-.48 3.5-.48Zm-.47 12.77c.88 0 1.65-.2 2.33-.59a3.31 3.31 0 0 0 1.45-1.74V35.6h-3.61c-2.02 0-3.02.66-3.02 1.99 0 .63.25 1.13.75 1.5.5.38 1.2.57 2.1.57Zm15.1-10.42c1.01-1.57 2.79-2.35 5.33-2.35v3.33c-.3-.05-.57-.08-.82-.08a4.2 4.2 0 0 0-3.19 1.2c-.76.79-1.15 1.92-1.15 3.42V42h-3.5V27.05h3.34v2.18Zm22.21 5.38c0 .24-.01.59-.05 1.03h-11.73c.2 1.1.73 1.98 1.6 2.64a5.4 5.4 0 0 0 3.24.95c1.64 0 3-.54 4.06-1.63l1.88 2.16c-.67.8-1.53 1.4-2.55 1.82a9.28 9.28 0 0 1-3.47.62 9.24 9.24 0 0 1-4.34-.98 7.18 7.18 0 0 1-2.92-2.72c-.67-1.18-1-2.5-1-3.98 0-1.45.32-2.76.98-3.92a7.12 7.12 0 0 1 2.77-2.74 8.05 8.05 0 0 1 3.97-.98c1.46 0 2.76.33 3.9.98a6.62 6.62 0 0 1 2.69 2.72c.65 1.15.97 2.5.97 4.03Zm-7.56-4.93c-1.11 0-2.07.34-2.85 1a4.15 4.15 0 0 0-1.4 2.64h8.48a4.13 4.13 0 0 0-1.37-2.63c-.77-.67-1.72-1.01-2.86-1.01Z" fill="#333"/><g clip-path="url(#a)" fill="#726DA8"><path d="M42.8 33.92a15.52 15.52 0 0 0-13.12-7.18 15.52 15.52 0 0 0-13.12 7.18L9.62 44.74a9.8 9.8 0 0 0-1.54 6 9.8 9.8 0 0 0 7.64 8.94 9.8 9.8 0 0 0 6.17-.58l.13-.06a19.39 19.39 0 0 1 15.44.06 9.81 9.81 0 0 0 11.47-2.62 9.8 9.8 0 0 0 2.34-5.73 9.8 9.8 0 0 0-1.53-6L42.8 33.91Zm-31.31-.02a7.56 7.56 0 0 0 4.41-4.68 9.77 9.77 0 0 0-.17-6.74 9.78 9.78 0 0 0-4.4-5.12 7.56 7.56 0 0 0-6.4-.51C.77 18.45-1.13 23.57.67 28.27c1.45 3.75 4.82 6.11 8.22 6.11.87 0 1.74-.15 2.59-.48Zm13.46-8.48c5.19 0 9.4-4.8 9.4-10.7C34.35 8.8 30.14 4 24.95 4c-5.18 0-9.4 4.8-9.4 10.71 0 5.9 4.22 10.71 9.4 10.71Zm16.24 2.63c.8.27 1.6.4 2.42.4 3.78 0 7.46-2.76 8.87-6.98.8-2.44.76-5.01-.15-7.25a8.1 8.1 0 0 0-4.95-4.8 8.1 8.1 0 0 0-6.83.88 10.5 10.5 0 0 0-4.46 5.72c-1.7 5.13.58 10.53 5.1 12.03Zm19.79-1.25c-3.57-2.64-8.92-1.5-11.92 2.56-2.99 4.05-2.52 9.5 1.05 12.14a7.35 7.35 0 0 0 4.41 1.42 9.5 9.5 0 0 0 7.5-3.98c3-4.05 2.53-9.5-1.04-12.14Z"/></g><defs><clipPath id="a"><path fill="#fff" d="M0 0h64v64H0z"/></clipPath></defs></svg>