<svg xmlns="http://www.w3.org/2000/svg" xmlns:xlink="http://www.w3.org/1999/xlink"><defs><clipPath id="a"><path fill="#fff" d="M0 0h40v40H0z"/></clipPath><clipPath id="a"><path fill="#fff" d="M0 0h40v40H0z"/></clipPath><clipPath id="a"><path fill="#fff" d="M0 0h40v40H0z"/></clipPath></defs><symbol id="instagram-logo"><g clip-path="url(#a)" fill="#726DA8"><path d="M7.917 40h24.166C36.448 40 40 36.448 40 32.083V7.917C40 3.552 36.448 0 32.083 0H7.917C3.552 0 0 3.552 0 7.917v24.166C0 36.448 3.552 40 7.917 40ZM2.5 7.917A5.423 5.423 0 0 1 7.917 2.5h24.166A5.423 5.423 0 0 1 37.5 7.917v24.166a5.423 5.423 0 0 1-5.417 5.417H7.917A5.423 5.423 0 0 1 2.5 32.083V7.917Z"/><path d="M20 30.217c5.633 0 10.217-4.584 10.217-10.217 0-5.633-4.584-10.217-10.217-10.217-5.633 0-10.217 4.584-10.217 10.217 0 5.633 4.584 10.217 10.217 10.217Zm0-17.934c4.255 0 7.717 3.462 7.717 7.717 0 4.255-3.462 7.717-7.717 7.717-4.255 0-7.717-3.462-7.717-7.717 0-4.255 3.462-7.717 7.717-7.717Zm10.596-.013c1.644 0 2.882-1.233 2.882-2.868 0-1.705-1.303-2.869-2.88-2.869-1.643 0-2.881 1.234-2.881 2.869 0 1.701 1.296 2.868 2.88 2.868Zm.296-3.143c.526.465-.675 1.03-.675.276 0-.45.611-.333.675-.276Z"/></g></symbol><symbol id="telegram-logo"><g clip-path="url(#a)"><path d="m.7 18.66 9.77 4.88c.38.18.83.17 1.19-.04l8.7-5.07-5.26 4.68c-.27.23-.42.57-.42.93v11.38c0 1.2 1.53 1.7 2.25.75l4.22-5.62 10.46 5.95c.73.42 1.67 0 1.84-.84l6.53-32.5c.19-.98-.78-1.77-1.68-1.4L.8 16.37c-1.01.39-1.08 1.8-.1 2.28ZM37.07 4.91l-5.74 28.56-9.9-5.64a1.25 1.25 0 0 0-1.62.34l-2.64 3.5V24.6l14.25-12.62c1.13-1-.17-2.78-1.46-2.02L10.99 21l-6.66-3.32L37.08 4.91Z" fill="#726DA8"/></g></symbol><symbol id="vk-logo"><g clip-path="url(#a)"><path d="M20.24 32.5c5.79 0 3.73-3.66 4.17-4.72 0-.78-.01-1.54.02-2 .36.1 1.23.54 3.01 2.28 2.76 2.78 3.47 4.44 5.7 4.44h4.1c1.3 0 1.97-.54 2.31-.99.33-.44.65-1.2.3-2.4-.92-2.87-6.25-7.83-6.59-8.36.05-.1.14-.22.18-.29 1.05-1.39 5.07-7.41 5.66-9.82v-.02c.32-1.1.03-1.8-.27-2.21-.46-.6-1.19-.91-2.17-.91h-4.1c-1.38 0-2.42.7-2.94 1.95-.89 2.25-3.36 6.86-5.22 8.49-.05-2.32-.02-4.08.01-5.4.06-2.55.26-5.04-2.4-5.04h-6.45c-1.66 0-3.25 1.82-1.53 3.97 1.51 1.9.54 2.95.87 8.19-1.27-1.36-3.52-5.03-5.11-9.72C9.34 8.68 8.66 7.5 6.76 7.5h-4.1C.99 7.5 0 8.4 0 9.93c0 3.4 7.55 22.57 20.24 22.57ZM6.76 10c.36 0 .4 0 .67.76 1.63 4.8 5.29 11.92 7.96 11.92 2 0 2-2.06 2-2.84v-6.16A5.9 5.9 0 0 0 16.06 10h5.85c0 .04-.03 6.83.02 8.48 0 2.34 1.85 3.68 4.75.74 3.06-3.45 5.18-8.6 5.26-8.82.13-.3.23-.4.63-.4h4.11v.02c-.38 1.75-4.08 7.32-5.32 9.05l-.06.09c-.54.89-.99 1.87.08 3.25.1.12.35.4.71.77 1.14 1.18 5.05 5.2 5.4 6.8-.23.04-.48.01-4.36.02-.82 0-1.47-1.23-3.93-3.71-2.21-2.16-3.65-3.04-4.95-3.04-2.55 0-2.36 2.06-2.34 4.56l.01 2.02c-.15.05-.57.17-1.68.17C9.67 30 2.78 13.21 2.52 10h4.24Z" fill="#726DA8"/></g></symbol></svg>